<svg
    id="Hand_Stop_24"
    width="24"
    height="24"
    viewBox="0 0 24 24"
    xmlns="http://www.w3.org/2000/svg"
    xmlns:xlink="http://www.w3.org/1999/xlink"
    >
    <rect
        width="24"
        height="24"
        stroke="none"
        fill="#000000"
        opacity="0"
    />

    <g transform="matrix(0.83 0 0 0.83 12 12)">
        <g style="">
            <g transform="matrix(1 0 0 1 1 -6.5)">
                <path
                style="
                    stroke: #000000;
                    stroke-width: 1;
                    stroke-dasharray: none;
                    stroke-linecap: round;
                    stroke-dashoffset: 0;
                    stroke-linejoin: round;
                    stroke-miterlimit: 10;
                    fill: none;
                    fill-rule: nonzero;
                    opacity: 1;
                "
                transform=" translate(-13, -5.5)"
                d="M 11.2015 10.25 L 11.2015 2.54999 C 11.2015 1.54999 12.0015 0.75 13.0015 0.75 C 14.0015 0.75 14.8015 1.54999 14.8015 2.54999 L 14.8015 10.25"
                stroke-linecap="round"
                />
            </g>
            <g transform="matrix(1 0 0 1 0 0.55)">
                <path
                style="
                    stroke: #000000;
                    stroke-width: 1;
                    stroke-dasharray: none;
                    stroke-linecap: round;
                    stroke-dashoffset: 0;
                    stroke-linejoin: round;
                    stroke-miterlimit: 10;
                    fill: none;
                    fill-rule: nonzero;
                    opacity: 1;
                "
                transform=" translate(-12, -12.55)"
                d="M 11.2015 10.25 L 11.2015 3.65004 C 11.2015 2.65004 10.4015 1.85004 9.40153 1.85004 C 8.40153 1.85004 7.60152 2.65004 7.60152 3.65004 L 7.60152 10.25 L 7.60152 14.75 L 4.80152 13.15 C 4.00152 12.85 3.00152 13.05 2.40152 13.75 C 1.80152 14.45 1.90153 15.55 2.50153 16.25 L 6.30152 20.55 C 7.80152 22.25 10.0015 23.25 12.3015 23.25 L 16.0015 23.25 C 19.3015 23.25 22.0015 20.55 22.0015 17.25 L 22.0015 5.95001 C 22.0015 4.95001 21.2015 4.15002 20.2015 4.15002 C 19.2015 4.15002 18.4015 4.95001 18.4015 5.95001 L 18.4015 10.25"
                stroke-linecap="round"
                />
            </g>
            <g transform="matrix(1 0 0 1 4.6 -5.95)">
                <path
                style="
                    stroke: #000000;
                    stroke-width: 1;
                    stroke-dasharray: none;
                    stroke-linecap: round;
                    stroke-dashoffset: 0;
                    stroke-linejoin: round;
                    stroke-miterlimit: 10;
                    fill: none;
                    fill-rule: nonzero;
                    opacity: 1;
                "
                transform=" translate(-16.6, -6.05)"
                d="M 18.4015 10.25 L 18.4015 3.65004 C 18.4015 2.65004 17.6015 1.85004 16.6015 1.85004 C 15.6015 1.85004 14.8015 2.65004 14.8015 3.65004 L 14.8015 10.25"
                stroke-linecap="round"
                />
            </g>
        </g>
    </g>
</svg>
